<svg id="SvgjsSvg1022" xmlns="http://www.w3.org/2000/svg" version="1.1" xmlns:xlink="http://www.w3.org/1999/xlink" xmlns:svgjs="http://svgjs.com/svgjs" width="33" height="19" viewBox="0 0 33 19"><title>vk kопировать</title><desc>Created with Avocode.</desc><defs id="SvgjsDefs1023"></defs><path id="SvgjsPath1024" d="M694.135 4690.68L695.995 4690.68C695.995 4690.68 696.557 4690.610000000001 696.844 4690.3C697.109 4690.01 697.1 4689.46 697.1 4689.46C697.1 4689.46 697.0640000000001 4686.89 698.222 4686.51C699.365 4686.14 700.832 4688.9800000000005 702.386 4690.06C703.562 4690.89 704.4549999999999 4690.67 704.4549999999999 4690.67L708.612 4690.68C708.612 4690.68 710.786 4690.51 709.755 4688.77C709.671 4688.620000000001 709.155 4687.4800000000005 706.664 4685.120000000001C704.058 4682.650000000001 704.407 4683.050000000001 707.547 4678.780000000001C709.4590000000001 4676.18 710.2230000000001 4674.590000000001 709.985 4673.910000000001C709.7570000000001 4673.27 708.361 4673.380000000001 708.361 4673.380000000001L703.67 4673.380000000001C703.67 4673.380000000001 703.323 4673.340000000001 703.0659999999999 4673.500000000001C702.814 4673.650000000001 702.6529999999999 4674.050000000001 702.6529999999999 4674.050000000001C702.6529999999999 4674.050000000001 701.911 4676.100000000001 700.9239999999999 4677.810000000001C698.8399999999999 4681.420000000001 698.0059999999999 4681.6100000000015 697.6659999999998 4681.390000000001C696.8729999999998 4680.8600000000015 697.0709999999998 4679.290000000001 697.0709999999998 4678.170000000001C697.0709999999998 4674.670000000001 697.5909999999998 4673.210000000001 696.0579999999998 4672.830000000001C695.5489999999998 4672.710000000001 695.1749999999997 4672.630000000001 693.8729999999998 4672.610000000001C692.2029999999999 4672.59 690.7899999999998 4672.620000000001 689.9889999999998 4673.02C689.4569999999998 4673.280000000001 689.0459999999998 4673.88 689.2969999999998 4673.910000000001C689.6059999999998 4673.950000000001 690.3059999999998 4674.1 690.6779999999998 4674.620000000001C691.1569999999998 4675.280000000001 691.1409999999997 4676.780000000001 691.1409999999997 4676.780000000001C691.1409999999997 4676.780000000001 691.4159999999997 4680.900000000001 690.4969999999997 4681.410000000001C689.8659999999998 4681.760000000001 689.0009999999997 4681.040000000001 687.1429999999997 4677.77C686.1909999999997 4676.09 685.4719999999996 4674.200000000001 685.4719999999996 4674.200000000001C685.4719999999996 4674.200000000001 685.3329999999996 4673.85 685.0859999999997 4673.670000000001C684.7859999999997 4673.440000000001 684.3669999999996 4673.370000000001 684.3669999999996 4673.370000000001L679.9189999999996 4673.370000000001C679.9189999999996 4673.370000000001 679.2519999999996 4673.390000000001 679.0059999999996 4673.6900000000005C678.7879999999997 4673.950000000001 678.9889999999996 4674.500000000001 678.9889999999996 4674.500000000001C678.9889999999996 4674.500000000001 682.4709999999995 4682.870000000001 686.4139999999995 4687.060000000001C690.0299999999995 4690.9000000000015 694.1349999999995 4690.680000000001 694.1349999999995 4690.680000000001Z " fill="#ebd8c3" fill-opacity="1" transform="matrix(1,0,0,1,-678,-4672)"></path></svg>