<svg id="SvgjsSvg1014" xmlns="http://www.w3.org/2000/svg" version="1.1" xmlns:xlink="http://www.w3.org/1999/xlink" xmlns:svgjs="http://svgjs.com/svgjs" width="33" height="19" viewBox="0 0 33 19"><title>vk</title><desc>Created with Avocode.</desc><defs id="SvgjsDefs1015"></defs><path id="SvgjsPath1016" d="M277.135 2418.68L278.995 2418.68C278.995 2418.68 279.557 2418.6099999999997 279.844 2418.2999999999997C280.109 2418.0099999999998 280.09999999999997 2417.4599999999996 280.09999999999997 2417.4599999999996C280.09999999999997 2417.4599999999996 280.06399999999996 2414.8899999999994 281.222 2414.5099999999998C282.36499999999995 2414.14 283.83099999999996 2416.97 285.38599999999997 2418.06C286.56199999999995 2418.89 287.455 2418.67 287.455 2418.67L291.61199999999997 2418.6800000000003C291.61199999999997 2418.6800000000003 293.78599999999994 2418.51 292.75499999999994 2416.7700000000004C292.67099999999994 2416.6200000000003 292.1549999999999 2415.4800000000005 289.66399999999993 2413.1200000000003C287.05799999999994 2410.6500000000005 287.4069999999999 2411.05 290.5469999999999 2406.78C292.4589999999999 2404.1800000000003 293.2229999999999 2402.59 292.9839999999999 2401.9100000000003C292.75699999999995 2401.2700000000004 291.36099999999993 2401.38 291.36099999999993 2401.38L286.66999999999996 2401.38C286.66999999999996 2401.38 286.323 2401.34 286.066 2401.5C285.81399999999996 2401.65 285.652 2402.05 285.652 2402.05C285.652 2402.05 284.911 2404.1000000000004 283.924 2405.8100000000004C281.84 2409.4200000000005 281.006 2409.6100000000006 280.666 2409.3900000000003C279.873 2408.86 280.07099999999997 2407.2900000000004 280.07099999999997 2406.1700000000005C280.07099999999997 2402.6700000000005 280.59099999999995 2401.2100000000005 279.058 2400.8300000000004C278.549 2400.7100000000005 278.175 2400.6300000000006 276.873 2400.6100000000006C275.203 2400.5900000000006 273.78999999999996 2400.620000000001 272.989 2401.0200000000004C272.457 2401.2800000000007 272.046 2401.8800000000006 272.29699999999997 2401.9100000000003C272.606 2401.9500000000003 273.306 2402.1000000000004 273.67799999999994 2402.6200000000003C274.1569999999999 2403.28 274.13999999999993 2404.78 274.13999999999993 2404.78C274.13999999999993 2404.78 274.41599999999994 2408.9 273.49699999999996 2409.4100000000003C272.866 2409.76 272.001 2409.0400000000004 270.143 2405.7700000000004C269.191 2404.0900000000006 268.472 2402.2000000000003 268.472 2402.2000000000003C268.472 2402.2000000000003 268.33299999999997 2401.8500000000004 268.08599999999996 2401.67C267.78599999999994 2401.44 267.36699999999996 2401.37 267.36699999999996 2401.37L262.919 2401.37C262.919 2401.37 262.252 2401.39 262.006 2401.69C261.78799999999995 2401.9500000000003 261.989 2402.5 261.989 2402.5C261.989 2402.5 265.471 2410.87 269.414 2415.06C273.029 2418.9 277.135 2418.68 277.135 2418.68Z " fill="#002b5c" fill-opacity="1" transform="matrix(1,0,0,1,-261,-2400)"></path></svg>