<svg xmlns="http://www.w3.org/2000/svg" width="33" height="19" viewBox="0 0 33 19"><title>vk</title><path d="M16.135 18.68h1.86s.562-.07.849-.38c.265-.29.256-.84.256-.84s-.036-2.57 1.122-2.95c1.143-.37 2.609 2.46 4.164 3.55 1.176.83 2.069.61 2.069.61l4.157.01s2.174-.17 1.143-1.91c-.084-.15-.6-1.29-3.091-3.65-2.606-2.47-2.257-2.07.883-6.34 1.912-2.6 2.676-4.19 2.437-4.87-.227-.64-1.623-.53-1.623-.53H25.67s-.347-.04-.604.12c-.252.15-.414.55-.414.55s-.741 2.05-1.728 3.76c-2.084 3.61-2.918 3.8-3.258 3.58-.793-.53-.595-2.1-.595-3.22 0-3.5.52-4.96-1.013-5.34-.509-.12-.883-.2-2.185-.22-1.67-.02-3.083.01-3.884.41-.532.26-.943.86-.692.89.309.04 1.009.19 1.381.71.479.66.462 2.16.462 2.16s.276 4.12-.643 4.63c-.631.35-1.496-.37-3.354-3.64C8.191 4.09 7.472 2.2 7.472 2.2s-.139-.35-.386-.53c-.3-.23-.719-.3-.719-.3H1.919s-.667.02-.913.32c-.218.26-.017.81-.017.81s3.482 8.37 7.425 12.56c3.615 3.84 7.721 3.62 7.721 3.62z" fill="#002b5c"/></svg>