<svg version="1.2" baseProfile="tiny" xmlns="http://www.w3.org/2000/svg" width="494.83" height="418.934" viewBox="0 0 494.83 418.934"><path fill="none" stroke="#EBD8C3" stroke-width="2" class="Vitebsk" stroke-miterlimit="22.926" d="M411.32 142.856c-1.212-2.665-3.56-.041-5.376-2.464-1.818-2.422 4.239-10.054 3.876-12.234-.364-2.181-3.635 0-5.208 0-1.574 0-3.272-2.061-3.636-5.089-.362-3.028-9.933-6.056-11.145-8.237-1.21-2.181 1.455-4.966 2.666-6.905 1.21-1.939-1.09-3.391-.848-4.482.241-1.09 3.634-.848 5.33-2.907 1.695-2.06-.486-3.998-.364-5.209.121-1.211 3.635.606 4.845-.363 1.212-.97-2.665-7.389-1.695-9.207.971-1.816-5.813-6.904-6.421-8.842-.605-1.939-4.238-3.756-3.876-6.542.363-2.786 5.45-4.967 6.42-6.541.971-1.575-.727-2.302-1.938-4.119-1.211-1.817-.243-2.907.604-4.845.849-1.939.485-8.601-1.694-10.055-2.181-1.453-4.604 1.575-6.663 1.817-2.061.242-.969-2.301-1.454-3.875-.484-1.575-3.149-.969-4.845-1.09-1.696-.121-1.696-3.028-1.575-4.482s-2.543-2.181-3.876-2.302-.969-4.24-2.302-4.482c-1.333-.242-10.66-5.088-12.234-5.451-1.575-.363-2.544 2.544-4.362 3.513-1.816.969-5.935-2.301-8.963-2.059-3.028.242-5.573 6.178-6.784 7.026s-.848-.848-2.544-.848c-1.694 0-5.088 1.938-7.025 3.028-1.939 1.091-2.786 4.482-4.482 4.966-1.694.485-3.151-2.907-4.967-4.118-1.817-1.212-2.423-2.907-2.181-4.967.241-2.059 1.09-8.6 3.028-8.722 1.938-.121 1.817-.242.727-2.665-1.091-2.422-6.421-4.118-8.116-3.876-1.696.242-7.147-3.634-9.813-3.997-2.665-.363-8.722 3.271-9.933 3.997-1.212.727-.606 1.817-1.332 3.271-.727 1.454-3.634-.121-5.088-.364-1.454-.242-.242-7.026-1.939-7.752-1.695-.728-1.694-3.029-2.786-4.361-1.091-1.333-9.447-.242-11.508-.242-2.059 0-.847 3.27-3.027 4.361-2.182 1.09-8.723-9.449-10.297-10.055-1.573-.605-2.302 2.18-4.118 2.908-1.818.727-5.331-.364-5.693 2.786-.364 3.15-5.573 5.33-5.451 7.389.121 2.059-7.027 6.056-7.269 7.632-.243 1.575-1.211 9.448-3.149 10.781-1.939 1.332-10.055-2.545-11.146-2.302-1.091.243-1.696 2.18-3.513 2.786-1.817.606-5.209-5.936-6.662-5.088-1.454.848-3.877.364-5.573.364-1.695 0-2.06 1.695-2.907 3.149-.848 1.454-2.907 2.665-4.118 5.693-1.212 3.029-2.666 2.544-4.361 3.271-1.696.727-4.361-1.938-6.663-.605-2.302 1.332-.969 5.693-1.09 8.6s-2.665 4.846-3.634 6.663c-.969 1.817.848 3.513.848 4.603 0 1.089-3.15 2.059-3.029 3.392.121 1.332-1.453 3.876-3.028 6.056s4.119 3.998 5.208 3.635c1.09-.364 3.998-1.575 6.057-.242 2.059 1.332 6.178 1.453 6.178 3.754 0 2.302-6.421 2.787-8.237 5.33-1.818 2.544-.728 7.753-2.666 7.753s-4.603-3.15-5.936-3.271c-1.332-.121-.847.969-2.18 1.938-1.332.969-2.665-1.575-5.935-1.575-3.271 0-3.635 3.271-3.635 6.542 0 2.283-2.598 5.156-5.197 7.219 4.598 1.19 7.905 2.104 8.291 2.413.107.086.214.216.32.383 2.522-2.109 4.396-3.48 4.936-3.78 1.481-.823 2.139 2.139 4.772 1.81 2.633-.329 1.317 2.468 4.114 1.152 2.798-1.316 2.468-1.481 3.95-1.481 1.48 0 1.48 3.127 3.949 2.139 2.468-.987 3.291-2.633 6.088-2.303 2.797.329.658 2.961 4.114 2.961 3.455 0 4.936-.658 5.43-1.481.494-.822 1.81-3.126 2.797-3.126.987 0 2.468 2.468 3.456 1.81.987-.658 3.126-1.975 3.619-.823.494 1.152-1.316 3.291 0 5.101 1.317 1.81 2.798 5.101 4.608 5.101 1.81 0 5.759 1.481 6.746 2.962.988 1.481.988 5.101 1.975 5.266s2.633-1.152 4.607.165c1.975 1.316 2.469 3.949 2.304 5.43-.164 1.48 2.633 6.417 4.772 7.075 2.139.659 4.772-1.81 6.253-.658 1.481 1.152 4.444.823 6.582.658 2.14-.164 7.405-2.632 8.887-2.303 1.479.329 4.772 6.417 6.253 8.062 1.479 1.646 2.962 2.14 3.62.988.657-1.152 2.632-8.063 3.783-8.886 1.153-.823 3.785 1.152 5.103.823 1.316-.329 2.303-3.127 2.962-1.81.658 1.316-2.139 5.924 0 7.24 2.138 1.316 4.936-1.316 6.911-.164 1.975 1.151 2.632 3.784 3.784 1.809 1.151-1.974-1.646-4.936.494-5.265 2.139-.329 5.265 1.316 7.239.329s8.063-3.291 9.379-1.975c1.317 1.317-2.303 4.772 1.153 4.772s5.759.165 8.063-.329c2.304-.493 1.974-3.62 2.962-2.797.986.823 1.481 3.126-.329 4.443-1.812 1.316-.001 3.949-1.152 5.43-1.152 1.481-.658 9.214-1.81 11.189-1.152 1.974 2.14 5.43.329 6.582s-3.291 4.443-1.975 4.772c.554.139 1.545-.16 2.604-.651 5.882-4.327 7.118-5.675 7.118-5.675l10.254.504 5.693-2.406 1.975 2.633 4.441 2.139.917-1.702-.292-2.398 4.147-3.469 3.949 1.645 1.975-1.645 2.747-1.554 1.696-.42-.963 2.923-.64 2.873 1.598.604 2.867-2.219 2.073-.891 4.413 4.202 1.346.241 3.101-5.213.717-2.69 2.112-1.479 1.626-2.034 2.652.134 4.377.325 4.459-1.592 2.733-.419 2.811 1.761 1.74.182s-1.122-2.958.988-3.785c1.827-.713 5.689.236 5.127-.999z"/><path fill="#EBD8C3" stroke="#EBD8C3" stroke-width="2" stroke-miterlimit="22.926" d="M279.495 297.052c-.044.002-.09.004-.135.004.046 0 .09-.002.135-.004zM166.819 93.027zm-.062.634a7.146 7.146 0 0 1-.029.142l.029-.142zm-.075.326zm-.299.819zM278.13 296.907c-3.347-.757-8.395-4.184-9.825-5.614-1.645-1.646 2.798-5.43 4.773-6.417 1.974-.987 4.278-6.747 4.771-8.722.492-1.975-.822-1.316-1.316-2.304s.658-3.455 1.645-4.278c.988-.822 1.976-.659 1.812-2.468-.164-1.81-1.152-7.897-.823-10.202.329-2.304-2.962 1.975-5.43 1.975s-.658-5.102-1.976-6.418c-1.315-1.316-.329.658-1.645 2.304-1.317 1.646-2.963-.987-4.608-.987-1.644 0-2.139-2.633-4.277-2.633-2.14 0-3.128-2.304-3.128-3.291s.658-2.14 2.141-2.633c1.48-.493 2.633 1.152 4.113 1.975 1.48.823 6.417-.329 7.239-.329.823 0 6.254-3.127 7.241-4.443s-6.912-.329-7.899-1.151c-.986-.821 1.317-3.127 2.305-4.444.986-1.315.658-3.948.658-6.252s3.291-4.442 4.606-4.607c1.317-.165 4.443-2.138 5.267-2.797.822-.658.328-1.81-.329-3.291-.659-1.481.164-2.139.822-2.797.657-.658 3.126 1.646 4.443 1.975 1.316.329 5.594-.658 6.746.987 1.151 1.646 2.797 5.101 4.443 5.594 1.645.493.164-5.265 1.316-5.265s4.278-.165 6.087-.987c1.811-.822-.986-3.62-.329-4.607.658-.986 1.812-1.646 3.128-2.14 1.315-.494 1.315 1.481 3.783 1.481s8.887-5.102 10.202-6.253c1.317-1.151-.987-2.14-.329-2.633.659-.493 2.798-1.975 3.784-3.785.987-1.811-3.289-1.152-5.1-1.81s-.658-3.127.329-4.443c.986-1.317-1.646-.823-1.151-2.139s-1.153-6.088-.988-8.392c.166-2.304 2.305-3.292 3.455-4.608 1.152-1.316-1.15-2.632-.164-3.784.987-1.152.33-4.114.33-4.937 0-.822 1.48-2.468 2.303-2.961.585-.351-1.643-3.183-2.989-5.095-1.06.491-2.051.79-2.604.651-1.316-.329.164-3.62 1.975-4.772s-1.481-4.608-.329-6.582c1.151-1.975.657-9.708 1.81-11.189 1.151-1.481-.659-4.114 1.152-5.43 1.811-1.317 1.315-3.62.329-4.443-.988-.823-.658 2.304-2.962 2.797-2.305.494-4.607.329-8.063.329s.164-3.455-1.153-4.772c-1.315-1.316-7.404.988-9.379 1.975s-5.101-.658-7.239-.329c-2.14.329.657 3.291-.494 5.265-1.152 1.975-1.81-.658-3.784-1.809-1.976-1.152-4.773 1.48-6.911.164-2.139-1.316.658-5.924 0-7.24-.659-1.317-1.646 1.481-2.962 1.81-1.317.329-3.949-1.646-5.103-.823-1.151.823-3.126 7.734-3.783 8.886-.658 1.152-2.141.658-3.62-.988-1.48-1.645-4.773-7.733-6.253-8.062-1.481-.329-6.747 2.139-8.887 2.303-2.138.165-5.101.494-6.582-.658-1.481-1.152-4.114 1.317-6.253.658-2.139-.658-4.936-5.595-4.772-7.075.165-1.48-.329-4.114-2.304-5.43-1.974-1.317-3.62 0-4.607-.165s-.987-3.785-1.975-5.266c-.987-1.48-4.936-2.962-6.746-2.962-1.81 0-3.291-3.291-4.608-5.101-1.316-1.81.494-3.949 0-5.101-.493-1.152-2.632.165-3.619.823-.988.658-2.469-1.81-3.456-1.81-.987 0-2.303 2.304-2.797 3.126-.494.823-1.975 1.481-5.43 1.481-3.456 0-1.317-2.632-4.114-2.961-2.797-.33-3.62 1.316-6.088 2.303-2.469.988-2.469-2.139-3.949-2.139-1.482 0-1.152.165-3.95 1.481-2.797 1.316-1.481-1.481-4.114-1.152-2.633.329-3.291-2.633-4.772-1.81-.539.3-2.413 1.671-4.936 3.78.716 1.131 1.368 3.96 1.513 6.283.167 2.667 3.5 2.5 5.167 4.834 1.666 2.333 5.333 4.5 4.333 5.833s1.834 7.167 2.5 8.667c.667 1.5 5 .833 4.167 2-.834 1.167-.5 2.5.333 3.833.834 1.333-2.333 0-2.333.833 0 .834-2 3-2.167 4-.166 1 .667 3.334.667 4.834s-2.167 2.5-2.5 3.666c-.334 1.167-5.5 11.834-7 14-1.5 2.167-7.667 1.334-9.833 1.334-2.167 0-2.334 2.166-4.334 2.166s-3 3.5-3.666 5.334c-.667 1.833 3 1.333 3.5.833s2 .667 1.5 2-.5 4-.5 5.333c0 1.334 2.166 1 4 1 1.833 0 2-1.833 3.333-1.333s1 2.5 1 4 2 .833 3.333.833c1.334 0 1.667 3.667-.333 4.5-2 .834-1 .833-2.667 3.333-1.666 2.5-6.666 1-7 4.667-.333 3.667 4.5 3.5 4.5 5s-2 .834-2.666 2c-.667 1.168.166 2.5.166 3.5s2.5 1.5 3.5 2.667.167 2.001.167 3.333c0 1.334 5.333 1.834 6.167 2.667.833.834 2.333 6.333 2.5 7.667.167 1.333-2 1-1.334 2.501.667 1.5 2.5.665 2.834 2.499.333 1.834 1.666 7.001 1.166 7.501-.389.388-6.907 2.183-10.503 3.2.48 3.045.953 5.542 1.313 6.365 1.152 2.633.329 2.797-1.81 2.797-2.139 0-3.62 1.481-3.62 4.114s3.126 5.924 3.784 7.075c.659 1.151 4.773-.329 5.76.329.987.658 1.974 3.457 2.139 4.937.165 1.481-2.468 0-4.607.823-2.14.824-2.469 2.468-3.456 4.279-.987 1.81 3.291 8.062 3.949 9.873.658 1.81-1.974 1.974-2.633 2.797-.658.821 4.114.822 5.76.657 1.645-.165.658-2.797 2.139-3.454 1.481-.659 3.126.821 4.278 2.138 1.152 1.316.987 2.633 2.633 2.798 1.645.165 3.456.658 4.443 3.62s6.088 3.455 8.557 4.442c2.468.987 1.81-2.468 3.62-1.151 1.81 1.316 1.481 4.771 1.974 6.253.494 1.482 4.114 1.48 5.594 1.646 1.481.165 1.482.822 1.317 3.455s-6.253.987-7.569 1.975 1.152 3.127-.164 4.443c-1.317 1.316 3.62 4.113 4.936 6.088s.493 3.456.493 5.431 1.811 1.316 4.443 3.291c.744.559 1.146.985 1.355 1.344 2.201-1.921 3.827-3.41 4.239-3.977 1.317-1.811-2.303-2.634-.164-4.114s1.81-2.469 2.962-4.442c1.151-1.975.987 2.139 3.126.493s2.139-2.469 3.949-2.633c1.81-.164.658 3.95 1.81 3.127s2.139-2.798 2.304-1.481c.165 1.316.329 4.113 1.975 5.101 1.645.986 7.241.495 9.05 1.152 1.81.658 4.936 2.468 6.088.822 1.152-1.646-.823-7.404 1.316-7.404 2.14 0 5.431.822 6.254 1.646.821.823 2.138 3.949 3.455 3.62 1.316-.329 11.354-.658 13-3.949s-.165-7.898.492-10.531c.201-.806 1.789-2.827 3.902-5.25zM166.803 93.342z"/><g fill="none" stroke="#EBD8C3" stroke-width="2" stroke-miterlimit="22.926"><path d="M451.241 342.383c.003-.766.006-1.448.006-1.994 0-3.876-3.998-3.997-5.451-4.967-1.453-.971.243-5.936-1.211-5.936-1.453 0-4.36-2.301-5.33-3.513-.968-1.212.728-2.544 2.181-4.725 1.452-2.181-1.211-2.786-1.453-3.513s.362-4.118.483-5.45c.121-1.334-.121-1.453-1.816-2.545-1.696-1.091 0-1.938 0-3.149s1.575-.968 2.907-1.211c1.331-.242-3.998-2.786-3.998-5.088 0-2.301-3.392-5.33-3.513-6.298-.121-.97 1.211-.485 3.271-2.666 2.059-2.181 1.575-6.905-.606-7.632-2.18-.727-.484-4.481-3.027-4.481-2.545 0-5.451-2.301-6.784-3.636-1.333-1.331-1.332-3.875-2.182-6.42-.849-2.543-3.512-2.908-3.997-3.15-.483-.242 1.696-3.755 2.061-4.604.362-.849 3.028-1.816 3.997-2.059.771-.192.161-1.075-.547-2.466l-.045.004c-1.765.162-3.365.205-4.356-.149-2.304-.823-3.127.329-4.114 1.316-.986.987-1.809-2.962-2.961-2.138-1.153.822-3.785-.495-2.963-1.153.823-.658.659-3.784.659-4.771 0-.988-1.646-2.305-3.62-2.963-1.975-.658-2.139-2.633-2.962-4.443s-1.81-1.646-4.114-1.646c-2.303 0-2.632 1.976-3.291 2.633-.658.658-2.797-.822-4.114-.822-1.315 0-4.277 2.962-6.91 1.646-2.634-1.316-2.962-2.962-5.925-2.962-2.962 0-6.253 1.809-6.91 3.949-.658 2.14-7.569 3.455-9.544 3.291-1.976-.164-1.646-1.481-1.976-3.291-.328-1.81-5.922-4.443-8.062-5.432-2.141-.986-3.126 1.482-4.278 1.646-1.153.164-2.633-1.646-4.279-2.304-1.645-.658-1.809.494-3.784 2.469-1.974 1.975 1.151 5.924 1.976 8.062.823 2.14-1.316.167-1.316 2.141 0 1.975-.33 3.784-.659 5.924-.328 2.14-1.315-.494-3.127-.494-1.81 0-.821.823-.821 2.139 0 1.317-.823.494-1.976 1.481-1.15.987 1.317 3.785 1.317 5.76s4.113 3.455 4.771 5.266c.659 1.811-2.632 1.48-3.783 1.316-1.152-.164-3.949-.494-5.925 0-1.974.494-2.303 1.975-3.948 2.633s-1.812-1.811-3.127-1.646c-1.316.165-.987 2.139-1.81 2.468-.823.329.329-1.316-1.646-.987-1.976.329-4.772-2.468-7.405-1.975s-4.608 4.114-6.417 6.253c-1.81 2.139-3.127 0-5.431 1.152-2.305 1.153-.493 2.797-1.316 5.759-.824 2.962-4.937 1.975-7.569 2.962-2.632.987 2.633 1.975 1.811 3.291-.823 1.316-3.949 1.316-6.417 2.469-2.469 1.152-2.798-.165-4.443.822s-2.797.329-5.924.494c-.405.021-.867-.033-1.365-.146-2.113 2.423-3.701 4.444-3.901 5.246-.657 2.633 1.153 7.24-.492 10.531s-11.684 3.62-13 3.949c-1.317.329-2.634-2.797-3.455-3.62-.823-.823-4.114-1.646-6.254-1.646-2.139 0-.164 5.759-1.316 7.404-1.152 1.646-4.278-.164-6.088-.822-1.809-.657-7.405-.166-9.05-1.152-1.646-.987-1.811-3.784-1.975-5.101-.165-1.316-1.152.658-2.304 1.481s0-3.291-1.81-3.127c-1.81.164-1.81.987-3.949 2.633s-1.975-2.468-3.126-.493c-1.152 1.974-.823 2.962-2.962 4.442-2.139 1.48 1.48 2.304.164 4.114-.413.566-2.039 2.056-4.239 3.977.531.909-.182 1.379.291 2.44.658 1.48 3.784.328 4.936.494 1.152.165.987 2.468 1.481 3.125.494.659 6.253 4.444 7.076 5.432.823.987-.494 2.139-.494 3.126 0 .988.329 7.733.329 10.202s3.785 4.278 3.785 5.924-4.114 4.114-3.785 6.417c.329 2.304-.823 4.442-1.48 6.253-.658 1.81 2.962 2.798 3.621 6.089.658 3.291-3.456 4.937-3.456 7.075 0 .84.152 3.507.297 7.152 1.996.659 5.015 2.007 6.426 2.242 1.792.299 4.181.996 3.086 2.888-1.095 1.892-2.589 6.073-1.395 6.969 1.195.896 1.891 2.688 3.285 1.792 1.395-.896 4.879-4.082 4.68-5.974-.199-1.892-1.593-3.384-.797-4.479.797-1.096 1.892-2.29 2.688-1.991.797.299 4.978 4.778 6.77 4.778s7.068-.099 7.865-1.294c.796-1.195.895-4.779 2.687-5.874 1.793-1.095 4.082-1.593 4.082-.697s-.895 2.986.3 3.783c1.193.797 3.086 2.291 3.086 3.087s.695 4.678 1.394 4.081c.697-.597 6.371-4.878 7.466-4.878 1.096 0 4.182 1.892 5.077 1.792.897-.099 2.191.996 2.489 2.39.3 1.394-.497 8.263 1.394 8.063 1.893-.199 2.488-1.393 2.888-.796.397.597 1.394 3.683 2.19 2.688.796-.995-.598-4.281.597-6.272s3.284-6.77 6.868-6.969c3.584-.198 5.873-.499 6.371-1.692.498-1.194.498-3.187 2.191-3.783 1.692-.597 5.078-.596 6.173 1.295 1.094 1.892 3.981 6.371 3.981 7.964s-2.091 3.683-.995 4.778c1.095 1.096 3.883 1.99 3.883 3.385s-.2 4.779 1.493 4.48c1.691-.299 2.984-3.085 4.28-2.986 1.294.099 2.391 1.593 3.285 1.294.896-.299 1.693-6.173 2.987-5.974s2.388 1.594 2.886.797c.499-.797-.001-2.887 1.493-3.385 1.495-.498 3.485-1.693 5.177-.797 1.693.896 1.196 5.177 2.489 5.077 1.295-.1 2.19-1.094 2.887-.796.697.298 1.992 2.19 2.689 1.394.696-.797.696-2.887 1.692-3.285.994-.398.994 1.095 1.692.796.697-.299 1.393-2.389 4.379-3.086 2.988-.697 8.961-.697 10.057-.199 1.095.498 4.38 5.875 6.37 6.372 1.991.497 1.693 2.887 1.793 5.177.099 2.29 1.989 4.381 3.98 4.48 1.992.1 1.593 2.389 3.385 2.688s4.88.398 4.979-1.792c.098-2.19 2.787-2.489 2.787-3.783s-.497-5.077-1.096-6.471c-.597-1.394-1.594-1.494-1.493-2.489.1-.995 1.295-1.094 1.194-2.289-.099-1.195-3.185-4.68-1.891-5.974s-3.188-1.096-2.589-2.29c.598-1.194-.897-2.687-.101-3.882.798-1.195 2.191-4.58 2.191-6.472s3.285-2.19 3.285-3.585c0-1.393-.3-4.381.498-5.475.797-1.095-.198-1.99.797-3.981s2.686-4.679 3.682-5.276 1.495.696 2.589-1.195c1.095-1.892.198-2.489 1.294-3.385 1.097-.896 3.386-.896 3.884-3.087s0-2.389.797-2.688c.796-.298 2.589 1.594 3.285 0 .696-1.592-1.991-1.989-1.892-3.284.099-1.295-1.195-2.689.298-3.286 1.493-.598 8.265-.995 10.354-.896 2.089.1 4.678 4.181 6.172 3.186 1.493-.995 1.494-5.773 4.58-6.172s15.331.497 16.725 1.095c.992.429 3.27-1.407 6.191-1.918zm-25.553-86.67zm-.073-.207a1.318 1.318 0 0 1-.027-.1c.009.035.017.067.027.1zm-.027-.099c-.017-.066-.03-.136-.043-.206.013.07.026.139.043.206zm-.076-.469zM216.213 390.679zm.68-.385zm-.239.107c.037-.02.075-.037.113-.055l-.113.055z"/><path d="M451.241 342.383c.003-.766.006-1.448.006-1.994 0-3.876-3.998-3.997-5.451-4.967-1.453-.971.243-5.936-1.211-5.936-1.453 0-4.36-2.301-5.33-3.513-.968-1.212.728-2.544 2.181-4.725 1.452-2.181-1.211-2.786-1.453-3.513s.362-4.118.483-5.45c.121-1.334-.121-1.453-1.816-2.545-1.696-1.091 0-1.938 0-3.149s1.575-.968 2.907-1.211c1.331-.242-3.998-2.786-3.998-5.088 0-2.301-3.392-5.33-3.513-6.298-.121-.97 1.211-.485 3.271-2.666 2.059-2.181 1.575-6.905-.606-7.632-2.18-.727-.484-4.481-3.027-4.481-2.545 0-5.451-2.301-6.784-3.636-1.333-1.331-1.332-3.875-2.182-6.42-.849-2.543-3.512-2.908-3.997-3.15-.483-.242 1.696-3.755 2.061-4.604.362-.849 3.028-1.816 3.997-2.059.771-.192.161-1.075-.547-2.466l-.045.004c-1.765.162-3.365.205-4.356-.149-2.304-.823-3.127.329-4.114 1.316-.986.987-1.809-2.962-2.961-2.138-1.153.822-3.785-.495-2.963-1.153.823-.658.659-3.784.659-4.771 0-.988-1.646-2.305-3.62-2.963-1.975-.658-2.139-2.633-2.962-4.443s-1.81-1.646-4.114-1.646c-2.303 0-2.632 1.976-3.291 2.633-.658.658-2.797-.822-4.114-.822-1.315 0-4.277 2.962-6.91 1.646-2.634-1.316-2.962-2.962-5.925-2.962-2.962 0-6.253 1.809-6.91 3.949-.658 2.14-7.569 3.455-9.544 3.291-1.976-.164-1.646-1.481-1.976-3.291-.328-1.81-5.922-4.443-8.062-5.432-2.141-.986-3.126 1.482-4.278 1.646-1.153.164-2.633-1.646-4.279-2.304-1.645-.658-1.809.494-3.784 2.469-1.974 1.975 1.151 5.924 1.976 8.062.823 2.14-1.316.167-1.316 2.141 0 1.975-.33 3.784-.659 5.924-.328 2.14-1.315-.494-3.127-.494-1.81 0-.821.823-.821 2.139 0 1.317-.823.494-1.976 1.481-1.15.987 1.317 3.785 1.317 5.76s4.113 3.455 4.771 5.266c.659 1.811-2.632 1.48-3.783 1.316-1.152-.164-3.949-.494-5.925 0-1.974.494-2.303 1.975-3.948 2.633s-1.812-1.811-3.127-1.646c-1.316.165-.987 2.139-1.81 2.468-.823.329.329-1.316-1.646-.987-1.976.329-4.772-2.468-7.405-1.975s-4.608 4.114-6.417 6.253c-1.81 2.139-3.127 0-5.431 1.152-2.305 1.153-.493 2.797-1.316 5.759-.824 2.962-4.937 1.975-7.569 2.962-2.632.987 2.633 1.975 1.811 3.291-.823 1.316-3.949 1.316-6.417 2.469-2.469 1.152-2.798-.165-4.443.822s-2.797.329-5.924.494c-.405.021-.867-.033-1.365-.146-2.113 2.423-3.701 4.444-3.901 5.246-.657 2.633 1.153 7.24-.492 10.531s-11.684 3.62-13 3.949c-1.317.329-2.634-2.797-3.455-3.62-.823-.823-4.114-1.646-6.254-1.646-2.139 0-.164 5.759-1.316 7.404-1.152 1.646-4.278-.164-6.088-.822-1.809-.657-7.405-.166-9.05-1.152-1.646-.987-1.811-3.784-1.975-5.101-.165-1.316-1.152.658-2.304 1.481s0-3.291-1.81-3.127c-1.81.164-1.81.987-3.949 2.633s-1.975-2.468-3.126-.493c-1.152 1.974-.823 2.962-2.962 4.442-2.139 1.48 1.48 2.304.164 4.114-.413.566-2.039 2.056-4.239 3.977.531.909-.182 1.379.291 2.44.658 1.48 3.784.328 4.936.494 1.152.165.987 2.468 1.481 3.125.494.659 6.253 4.444 7.076 5.432.823.987-.494 2.139-.494 3.126 0 .988.329 7.733.329 10.202s3.785 4.278 3.785 5.924-4.114 4.114-3.785 6.417c.329 2.304-.823 4.442-1.48 6.253-.658 1.81 2.962 2.798 3.621 6.089.658 3.291-3.456 4.937-3.456 7.075 0 .84.152 3.507.297 7.152 1.996.659 5.015 2.007 6.426 2.242 1.792.299 4.181.996 3.086 2.888-1.095 1.892-2.589 6.073-1.395 6.969 1.195.896 1.891 2.688 3.285 1.792 1.395-.896 4.879-4.082 4.68-5.974-.199-1.892-1.593-3.384-.797-4.479.797-1.096 1.892-2.29 2.688-1.991.797.299 4.978 4.778 6.77 4.778s7.068-.099 7.865-1.294c.796-1.195.895-4.779 2.687-5.874 1.793-1.095 4.082-1.593 4.082-.697s-.895 2.986.3 3.783c1.193.797 3.086 2.291 3.086 3.087s.695 4.678 1.394 4.081c.697-.597 6.371-4.878 7.466-4.878 1.096 0 4.182 1.892 5.077 1.792.897-.099 2.191.996 2.489 2.39.3 1.394-.497 8.263 1.394 8.063 1.893-.199 2.488-1.393 2.888-.796.397.597 1.394 3.683 2.19 2.688.796-.995-.598-4.281.597-6.272s3.284-6.77 6.868-6.969c3.584-.198 5.873-.499 6.371-1.692.498-1.194.498-3.187 2.191-3.783 1.692-.597 5.078-.596 6.173 1.295 1.094 1.892 3.981 6.371 3.981 7.964s-2.091 3.683-.995 4.778c1.095 1.096 3.883 1.99 3.883 3.385s-.2 4.779 1.493 4.48c1.691-.299 2.984-3.085 4.28-2.986 1.294.099 2.391 1.593 3.285 1.294.896-.299 1.693-6.173 2.987-5.974s2.388 1.594 2.886.797c.499-.797-.001-2.887 1.493-3.385 1.495-.498 3.485-1.693 5.177-.797 1.693.896 1.196 5.177 2.489 5.077 1.295-.1 2.19-1.094 2.887-.796.697.298 1.992 2.19 2.689 1.394.696-.797.696-2.887 1.692-3.285.994-.398.994 1.095 1.692.796.697-.299 1.393-2.389 4.379-3.086 2.988-.697 8.961-.697 10.057-.199 1.095.498 4.38 5.875 6.37 6.372 1.991.497 1.693 2.887 1.793 5.177.099 2.29 1.989 4.381 3.98 4.48 1.992.1 1.593 2.389 3.385 2.688s4.88.398 4.979-1.792c.098-2.19 2.787-2.489 2.787-3.783s-.497-5.077-1.096-6.471c-.597-1.394-1.594-1.494-1.493-2.489.1-.995 1.295-1.094 1.194-2.289-.099-1.195-3.185-4.68-1.891-5.974s-3.188-1.096-2.589-2.29c.598-1.194-.897-2.687-.101-3.882.798-1.195 2.191-4.58 2.191-6.472s3.285-2.19 3.285-3.585c0-1.393-.3-4.381.498-5.475.797-1.095-.198-1.99.797-3.981s2.686-4.679 3.682-5.276 1.495.696 2.589-1.195c1.095-1.892.198-2.489 1.294-3.385 1.097-.896 3.386-.896 3.884-3.087s0-2.389.797-2.688c.796-.298 2.589 1.594 3.285 0 .696-1.592-1.991-1.989-1.892-3.284.099-1.295-1.195-2.689.298-3.286 1.493-.598 8.265-.995 10.354-.896 2.089.1 4.678 4.181 6.172 3.186 1.493-.995 1.494-5.773 4.58-6.172s15.331.497 16.725 1.095c.992.429 3.27-1.407 6.191-1.918zm-25.553-86.67zm-.073-.207a1.459 1.459 0 0 1-.027-.1c.009.035.017.068.027.1zm-.027-.099c-.017-.066-.03-.136-.043-.206.013.07.026.139.043.206zm-.076-.469zM216.213 390.679zm.68-.385zm-.239.107c.037-.02.075-.037.113-.055"/></g><path fill="none" stroke="#EBD8C3" stroke-width="2" stroke-miterlimit="22.926" d="M42.508 282.343c-.133 2.975-.382 5.933-.845 7.148-1 2.626-7.375 8.376-10.5 7.751-3.125-.625-7 .5-13.625 3.249-6.625 2.75-17.25 21.5-16.5 22.75.75 1.251.125 3.125.625 4.751.5 1.624 4.5.875 6.5 1.749 2 .875 2.75 3.751 4.375 3.751s3.25-.25 4.125 3.75c.875 3.999 5.296 1.802 6.018 3.005s2.166 7.701 2.407 9.145-.963 1.686-2.407 2.648c-1.443.962-2.166 7.699-2.406 9.384s.722 2.888.722 5.054-2.647 2.646-4.332 4.572c-1.684 1.926-.241 6.016-.722 7.459-.481 1.442.241 8.182.241 9.866 0 .962 1.255 2.316 2.556 3.614 1.452-.611 2.215-1.49 2.01-2.688-.697-4.081-3.285-6.869-.398-8.562s7.566-1.492 8.86-.696 3.385 1.492 4.978 1.492.498 3.983 3.385 3.386c2.887-.598 10.851-5.277 12.344-7.666 1.494-2.389 6.373-3.087 6.77-5.674.398-2.589 2.389-9.061 6.371-10.056s9.061-.696 11.946-1.095c2.887-.398 3.086 1.294 5.078 1.394 1.991.1 1.692-1.095 3.683-.995s2.589 1.593 4.081.995c1.494-.598 11.848-3.885 14.536-4.88 2.688-.995 5.177.698 6.769 1.395 1.593.696 8.263 2.688 12.942 2.688s9.458.497 11.548-.398c2.091-.896 4.68.698 7.168 1.494 2.489.796 7.069 1.991 9.757 1.095 2.688-.896 3.782 3.783 5.873 3.982 2.091.199 10.155.896 11.649.896 1.492 0-.101 4.581 2.687 4.083 2.788-.498 7.864-2.291 9.557-1.396 1.692.897 12.842 7.866 15.431 7.368 2.588-.498 4.679-2.29 6.073-2.29 1.393 0 6.57.598 7.964 1.692 1.394 1.096-1.493 7.268.398 7.567 1.892.298 5.376.496 5.077 1.492-.298.996-2.787 5.178-1.194 5.178s2.09-1.893 3.882-1.594c1.792.299 4.281 1.594 5.277.398.995-1.194.796-2.688 2.389-2.489.337.042.801.17 1.339.348-.145-3.646-.297-6.313-.297-7.152 0-2.139 4.114-3.784 3.456-7.075-.659-3.291-4.279-4.279-3.621-6.089.658-1.811 1.81-3.949 1.48-6.253-.329-2.303 3.785-4.771 3.785-6.417s-3.785-3.455-3.785-5.924-.329-9.214-.329-10.202c0-.987 1.317-2.139.494-3.126-.823-.987-6.582-4.772-7.076-5.432-.494-.657-.329-2.96-1.481-3.125-1.152-.166-4.278.986-4.936-.494-.659-1.48.987-1.81-1.646-3.784s-4.443-1.316-4.443-3.291.823-3.456-.493-5.431-6.253-4.771-4.936-6.088c1.316-1.316-1.152-3.456.164-4.443s7.404.658 7.569-1.975.164-3.29-1.317-3.455c-1.48-.165-5.1-.163-5.594-1.646-.493-1.481-.164-4.937-1.974-6.253-1.81-1.316-1.152 2.139-3.62 1.151-2.469-.987-7.57-1.48-8.557-4.442s-2.798-3.455-4.443-3.62c-1.646-.165-1.481-1.481-2.633-2.798-1.152-1.316-2.797-2.797-4.278-2.138-1.481.657-.494 3.289-2.139 3.454-1.646.165-6.418.164-5.76-.657.659-.823 3.291-.987 2.633-2.797-.658-1.812-4.936-8.063-3.949-9.873.987-1.812 1.316-3.455 3.456-4.279 2.139-.823 4.772.658 4.607-.823-.165-1.479-1.152-4.278-2.139-4.937-.987-.658-5.101.822-5.76-.329-.658-1.151-3.784-4.442-3.784-7.075s1.481-4.114 3.62-4.114c2.139 0 2.962-.164 1.81-2.797-.36-.823-.833-3.32-1.313-6.365a67.688 67.688 0 0 0-2.163.633c-1.5.5-3.167-.5-5-1.167s-14.667-1.832-16.667-1.667c-2 .168-.833-1.834-2.333-.999-1.5.834-1.834-1.334-3.5-.5-1.667.833-1.834-.335-4.667 1.499-2.834 1.834-1.833 5.667-3 7.334-1.167 1.666-2.5.167-3.5 2.001-1 1.832 1.833 1.832 1.833 4 0 2.165-1.666 1.332-2.5 3.331-.833 2 2.167 3.001 1.834 4.335s-2.667 5.165-3.667 7.166c-1 1.999-2.833 2.667-4.333 3.833-1.5 1.169-1.834 4.666-3.5 5.667-1.667.999-2.167-1.667-4-.5s1.166 2.167.166 4.168c-1 1.999 1.334 1.999 0 3.331-1.333 1.334-2.666-1.665-3.333-2.666-.667-1-2 2.166-4 1.166-2-.999-3 .835-5.167 2-2.166 1.167-.5-5.5-.5-7.499 0-2.001-1.166 1.167-2.5 1.667-1.333.5-2.333 1.001-2-1.334.334-2.332-1.166-4.666-3.333-5.333s-2.167 2.167-3.667 2.834-5-2.001-6.666-2.501c-1.667-.5-2.5.5-4 1.501-1.5 1 2.166 1.834.666 2.834-1.5.999-3.333 1.999-3.666 3.331-.333 1.334-1.5 5.834-.834 8.335.667 2.499-3 2.333-5 2.166s-2.167-3.166-4.333-3.166c-2.167 0-6.833.333-9 .165-2.167-.165-2.333-2.5-3-3-.667-.5-3.167 2.835-6.833 2.001-1.029-.234-2.849-.574-5.07-.982z"/><path fill="none" stroke="#EBD8C3" stroke-width="2" stroke-miterlimit="22.926" d="M161.623 100.246c-1.124.892-2.248 1.633-3.162 2.108-3.028 1.575-9.085-.605-9.206 1.212-.121 1.817-3.15 4.361-4.725 5.572-1.574 1.211-.242 1.332-.242 4.361s-1.938 1.575-2.907 2.786c-.969 1.211-.242 2.786.121 4.724s-.485 3.028-1.333 3.998c-.848.969 1.817 6.42 1.817 8.358 0 1.939-3.028 4.845-4.724 5.451-1.696.606-1.696 5.33-1.817 7.147s-5.813 5.452-4.603 9.085c1.211 3.634 6.299.969 7.511.606 1.211-.363.969.605.969 2.301s2.543 2.181 3.634 4.603c1.09 2.423-.849 1.212-.849 3.998s-1.332 4.24-3.028 4.119c-1.696-.121-3.028 1.211-6.299 1.09-3.27-.121-2.665-.727-4.118-3.391-1.454-2.666.848-2.181 2.059-3.756 1.211-1.575-.122-2.786-1.333-3.998-1.211-1.211-2.301-4.361-3.997-2.907-1.696 1.454-2.181 3.634-4.725 3.877-2.544.242-7.147-3.15-7.389.484s-5.33 8.722-7.389 9.691c-2.059.969-2.302-3.149-4.967-2.786-2.665.363-7.026 2.302-8.601 3.634-1.574 1.333 1.454 3.029 1.575 8.48s-3.392 3.028-4.724 3.27c-1.332.242-2.787-1.938-4.846-1.575-2.059.364-9.69 5.452-11.508 6.784-1.817 1.332-3.028.484-3.997-.727s-2.059-.121-3.755-.363c-1.696-.242-.969-5.209-3.15-5.936-2.181-.726-3.149 1.938-5.087 2.543-1.938.606-6.784-2.181-8.116-2.181s-2.907 1.575-4.724 2.545c-1.816.969-2.907-.364-5.088-.607-2.181-.242-3.876 2.423-5.693 1.454-1.02-.544-3.112-1.575-5.542-2.295.004 1.992.035 4.202.249 5.486.25 1.5 0 3.375-.5 4.5s2.5 4.875 2.375 7.875 4 21.375 4.875 23.625c.875 2.249 3.25 14.249 4.25 16.374 1 2.126 2 2.126 2 4.375 0 2.251 2.5 3.75 2.625 5.751.125 1.999-1.5 3.124-2.625 5.375-1.125 2.249 2.75 4.625 2.875 6.749.125 2.126-.5 5.125-1.375 6.876-.875 1.749.25 2.124.25 3.625 0 .805 0 4.276-.155 7.726 2.222.408 4.042.748 5.072.982 3.667.834 6.166-2.501 6.833-2.001.667.5.833 2.835 3 3 2.167.168 6.833-.165 9-.165s2.333 2.999 4.333 3.166 5.667.333 5-2.166c-.666-2.501.501-7.001.834-8.335.333-1.332 2.166-2.332 3.666-3.331 1.5-1-2.166-1.834-.666-2.834 1.5-1.001 2.333-2.001 4-1.501 1.666.5 5.166 3.168 6.666 2.501s1.5-3.501 3.667-2.834 3.667 3.001 3.333 5.333c-.333 2.335.667 1.834 2 1.334 1.334-.5 2.5-3.668 2.5-1.667 0 1.999-1.666 8.666.5 7.499 2.167-1.165 3.167-2.999 5.167-2 2 1 3.333-2.166 4-1.166.667 1.001 2 4 3.333 2.666 1.334-1.332-1-1.332 0-3.331 1-2.001-1.999-3.001-.166-4.168s2.333 1.499 4 .5c1.666-1.001 2-4.498 3.5-5.667 1.5-1.166 3.333-1.834 4.333-3.833 1-2.001 3.334-5.832 3.667-7.166s-2.667-2.335-1.834-4.335c.834-1.999 2.5-1.166 2.5-3.331 0-2.168-2.833-2.168-1.833-4 1-1.834 2.333-.335 3.5-2.001 1.167-1.667.166-5.5 3-7.334 2.833-1.834 3-.666 4.667-1.499 1.666-.834 2 1.334 3.5.5 1.5-.835.333 1.167 2.333.999 2-.165 14.834 1 16.667 1.667s3.5 1.667 5 1.167 12.166-3.333 12.666-3.833-.833-5.667-1.166-7.501c-.334-1.834-2.167-.999-2.834-2.499-.666-1.501 1.501-1.168 1.334-2.501-.167-1.334-1.667-6.833-2.5-7.667-.834-.833-6.167-1.333-6.167-2.667 0-1.332.833-2.166-.167-3.333s-3.5-1.667-3.5-2.667-.833-2.332-.166-3.5c.666-1.166 2.666-.5 2.666-2s-4.833-1.333-4.5-5c.334-3.667 5.334-2.167 7-4.667 1.667-2.5.667-2.499 2.667-3.333 2-.833 1.667-4.5.333-4.5-1.333 0-3.333.667-3.333-.833s.333-3.5-1-4-1.5 1.333-3.333 1.333c-1.834 0-4 .334-4-1 0-1.333 0-4 .5-5.333s-1-2.5-1.5-2-4.167 1-3.5-.833c.666-1.834 1.666-5.334 3.666-5.334s2.167-2.166 4.334-2.166c2.166 0 8.333.833 9.833-1.334 1.5-2.166 6.666-12.833 7-14 .333-1.166 2.5-2.166 2.5-3.666s-.833-3.834-.667-4.834c.167-1 2.167-3.166 2.167-4 0-.833 3.167.5 2.333-.833-.833-1.333-1.167-2.666-.333-3.833.833-1.167-3.5-.5-4.167-2-.666-1.5-3.5-7.334-2.5-8.667s-2.667-3.5-4.333-5.833c-1.667-2.334-5-2.167-5.167-4.834-.166-2.666-1-5.999-1.833-6.666-.387-.307-3.694-1.221-8.291-2.411zm264.608 156.636c-.182-.357-.37-.748-.543-1.169-.849-2.06 1.332-6.783 2.302-6.662s3.27.485 5.935.848c2.665.363 3.028-2.301 4.845-.969s7.147.485 7.147 2.544c0 2.061 3.15 4.482 4.362 4.482s1.815 2.059 2.543 2.664c.726.605 4.239-1.816 4.845-1.816.606 0 1.576.605 4.967 1.453 3.393.848 5.088-2.665 5.694-3.391.605-.728 2.907-.242 3.634-.364.727-.121 2.664-4.24 3.392-4.966.727-.728 2.544-.364 3.149-.606.607-.242 3.514-7.27 3.029-7.995-.484-.727-1.818-2.181-.729-2.423s4.483-.605 5.694-.605c1.21 0 .969-1.573 1.817-2.181.848-.605 2.544 0 3.876.121s2.06-1.574 1.332-2.665c-.726-1.091.606-7.024.242-8.358-.362-1.332-1.332-.363-2.906 0-1.575.363-.121-2.059-1.332-3.271s-1.817.606-3.272 1.091c-1.454.485-3.391-3.635-5.451-4.36-2.06-.728-3.633-4.968-4.238-6.905s3.513-3.636 3.755-4.24c.241-.605-2.544-4.239-3.393-4.36-.847-.121-1.089.363-3.148.363-2.061 0-.121-1.212-1.939-2.181-1.816-.968-4.723-2.302-6.419-2.302s-4.12-2.422-6.057-2.301c-1.938.121-9.206 3.149-10.782 3.876-1.575.728-1.696-.849-2.907-1.938-1.211-1.09-1.09-.363-2.665.242-1.574.606-.726-2.059.363-3.876 1.091-1.816 2.667-9.933 3.151-11.871.483-1.938-.727-5.693-.97-6.905-.241-1.211-1.453.364-2.544.727-1.09.363-.847-2.181-1.211-3.15-.362-.969-2.302-.726-4.118-.363-1.817.363-5.21-2.786-6.421-2.786s-2.544-1.091-5.088-4.119c-2.543-3.028-5.33-2.06-7.874-5.088-2.544-3.028-1.694-9.812-2.907-10.538-1.212-.727-1.573-4.482-2.785-7.147-.536-1.177-1.544-1.433-2.659-1.56l-.326.175c-1.686.851-3.008 1.542-3.423 1.819-1.482.988-1.316 1.152-.988 3.785.33 2.633-3.949-3.291-6.416-1.975-2.468 1.317-4.772 2.304-7.241 2.139-2.468-.164-5.265-1.645-5.923.33-.659 1.974-3.457 1.81-3.457 3.949 0 2.138-1.809 5.594-3.291 6.582-1.48.987-3.948-3.785-5.759-4.443-1.809-.659-3.456 3.62-5.759 3.126-2.304-.494.823-4.607.823-6.417 0-1.811-2.47 1.81-4.443 1.974-1.975.165-1.317.987-1.975 1.645-.658.659-2.14-1.974-3.949-1.645-1.812.329-1.976 1.152-3.62 2.469-1.646 1.316 1.151 4.607-1.152 5.1-2.303.494-2.467-2.139-4.441-2.139s-.987-1.152-1.975-2.633c-.987-1.48-1.975.823-3.786 1.975-1.811 1.152-9.708-.164-10.859-.494-1.153-.329-3.291 2.304-4.608 3.621-.762.762-2.353 1.8-3.812 2.475 1.347 1.912 3.574 4.744 2.989 5.095-.822.493-2.303 2.139-2.303 2.961 0 .823.657 3.785-.33 4.937-.986 1.152 1.316 2.468.164 3.784-1.15 1.317-3.289 2.304-3.455 4.608-.165 2.304 1.482 7.076.988 8.392s2.138.822 1.151 2.139c-.987 1.316-2.14 3.785-.329 4.443s6.087-.001 5.1 1.81c-.986 1.81-3.125 3.292-3.784 3.785-.658.493 1.646 1.481.329 2.633-1.315 1.151-7.734 6.253-10.202 6.253s-2.468-1.976-3.783-1.481c-1.316.494-2.47 1.153-3.128 2.14-.657.987 2.14 3.785.329 4.607-1.809.822-4.935.987-6.087.987s.328 5.758-1.316 5.265c-1.646-.493-3.292-3.948-4.443-5.594-1.152-1.646-5.43-.658-6.746-.987-1.317-.329-3.786-2.633-4.443-1.975-.658.658-1.481 1.315-.822 2.797.657 1.481 1.151 2.633.329 3.291-.823.659-3.949 2.632-5.267 2.797-1.315.165-4.606 2.304-4.606 4.607s.328 4.937-.658 6.252c-.987 1.317-3.291 3.623-2.305 4.444.987.822 8.887-.165 7.899 1.151s-6.418 4.443-7.241 4.443c-.822 0-5.759 1.152-7.239.329-1.48-.822-2.633-2.468-4.113-1.975-1.482.493-2.141 1.646-2.141 2.633s.988 3.291 3.128 3.291c2.139 0 2.634 2.633 4.277 2.633 1.646 0 3.291 2.633 4.608.987 1.315-1.646.329-3.62 1.645-2.304 1.317 1.316-.492 6.418 1.976 6.418s5.759-4.278 5.43-1.975c-.329 2.305.659 8.393.823 10.202.164 1.809-.823 1.646-1.812 2.468-.986.823-2.139 3.291-1.645 4.278s1.809.329 1.316 2.304c-.493 1.975-2.798 7.734-4.771 8.722-1.976.987-6.418 4.771-4.773 6.417 1.646 1.646 8.063 5.925 11.19 5.76s4.278.493 5.924-.494 1.975.33 4.443-.822c2.468-1.152 5.594-1.152 6.417-2.469.822-1.316-4.442-2.304-1.811-3.291 2.633-.987 6.745 0 7.569-2.962.823-2.962-.988-4.605 1.316-5.759 2.304-1.152 3.621.986 5.431-1.152 1.809-2.139 3.784-5.76 6.417-6.253s5.43 2.304 7.405 1.975c1.975-.329.822 1.316 1.646.987.822-.329.493-2.303 1.81-2.468 1.315-.165 1.481 2.304 3.127 1.646s1.975-2.139 3.948-2.633c1.976-.494 4.772-.164 5.925 0 1.151.164 4.442.494 3.783-1.316-.657-1.811-4.771-3.291-4.771-5.266s-2.468-4.772-1.317-5.76c1.152-.987 1.976-.164 1.976-1.481 0-1.315-.988-2.139.821-2.139 1.812 0 2.799 2.634 3.127.494.329-2.14.659-3.949.659-5.924 0-1.974 2.14-.001 1.316-2.141-.824-2.138-3.949-6.087-1.976-8.062 1.976-1.975 2.14-3.127 3.784-2.469 1.646.657 3.126 2.468 4.279 2.304 1.152-.164 2.138-2.633 4.278-1.646 2.14.988 7.733 3.622 8.062 5.432.33 1.81 0 3.127 1.976 3.291 1.975.164 8.886-1.151 9.544-3.291.657-2.141 3.948-3.949 6.91-3.949 2.963 0 3.291 1.646 5.925 2.962 2.633 1.316 5.595-1.646 6.91-1.646 1.317 0 3.456 1.48 4.114.822.659-.657.988-2.633 3.291-2.633 2.305 0 3.291-.165 4.114 1.646s.987 3.785 2.962 4.443c1.974.658 3.62 1.975 3.62 2.963 0 .986.164 4.112-.659 4.771-.822.658 1.81 1.976 2.963 1.153 1.152-.824 1.975 3.125 2.961 2.138.987-.987 1.811-2.14 4.114-1.316.991.354 2.592.312 4.356.149l.046-.004z"/><path fill="#002B5C" d="M229.287 188.304a6.54 6.54 0 0 1 4.639 1.923l.003.002a6.541 6.541 0 0 1 1.922 4.639 6.55 6.55 0 0 1-1.922 4.642 6.545 6.545 0 0 1-4.642 1.922 6.547 6.547 0 0 1-4.639-1.922l-.001-.001-.001-.001a6.546 6.546 0 0 1-1.923-4.639c0-1.812.735-3.454 1.923-4.642a6.542 6.542 0 0 1 4.641-1.923zm3.641 2.924c-.932-.931-2.219-1.506-3.641-1.506s-2.708.576-3.639 1.507a5.132 5.132 0 0 0-1.508 3.64c0 1.423.575 2.709 1.505 3.639l.003.003a5.13 5.13 0 0 0 3.639 1.505 5.128 5.128 0 0 0 3.639-1.508 5.13 5.13 0 0 0 1.507-3.639 5.13 5.13 0 0 0-1.505-3.641zm-3.641-.339a3.978 3.978 0 1 0-.001 7.957 3.978 3.978 0 0 0 .001-7.957z"/><path fill="none" d="M189.037 172.304h80.5v13h-80.5z"/><text transform="translate(205.392 183.696)" fill="#002B5C" font-family="'DINPro-Bold'" font-size="16">Минск</text><path fill="#EBD8C3" d="M390.787 208.123a6.54 6.54 0 0 1 4.639 1.922l.003.004a6.54 6.54 0 0 1 1.923 4.639 6.542 6.542 0 0 1-1.923 4.641 6.54 6.54 0 0 1-4.642 1.924 6.54 6.54 0 0 1-4.639-1.924h-.002l-.001-.002a6.546 6.546 0 0 1-1.923-4.639c0-1.813.734-3.453 1.923-4.643a6.545 6.545 0 0 1 4.642-1.922zm3.641 2.923c-.932-.932-2.219-1.506-3.641-1.506s-2.708.576-3.639 1.506c-.932.932-1.508 2.219-1.508 3.641s.574 2.709 1.504 3.639l.004.004a5.132 5.132 0 0 0 3.639 1.504c1.421 0 2.707-.576 3.639-1.508s1.508-2.219 1.508-3.639a5.143 5.143 0 0 0-1.506-3.641zm-3.641-.338a3.98 3.98 0 1 0 0 7.958 3.98 3.98 0 0 0 0-7.958z"/><path fill="none" d="M350.537 192.123h80.5v13h-80.5z"/><text transform="translate(358.42 203.515)" fill="#EBD8C3" font-family="'DINPro-Bold'" font-size="16">Могилев</text><path fill="#EBD8C3" d="M334.999 340.487a6.54 6.54 0 0 1 4.639 1.922l.003.004a6.54 6.54 0 0 1 1.923 4.639 6.542 6.542 0 0 1-1.923 4.641 6.54 6.54 0 0 1-4.642 1.924 6.54 6.54 0 0 1-4.639-1.924h-.002l-.001-.002a6.546 6.546 0 0 1-1.923-4.639c0-1.813.734-3.453 1.923-4.643a6.545 6.545 0 0 1 4.642-1.922zm3.641 2.924c-.932-.932-2.219-1.506-3.641-1.506s-2.708.576-3.639 1.506c-.932.932-1.508 2.219-1.508 3.641s.574 2.709 1.504 3.639l.004.004a5.132 5.132 0 0 0 3.639 1.504c1.421 0 2.707-.576 3.639-1.508s1.508-2.219 1.508-3.639a5.14 5.14 0 0 0-1.506-3.641zm-3.641-.338a3.98 3.98 0 1 0 0 7.958 3.98 3.98 0 0 0 0-7.958z"/><path fill="none" d="M294.749 324.487h80.5v13h-80.5z"/><text transform="translate(307.727 335.88)" fill="#EBD8C3" font-family="'DINPro-Bold'" font-size="16">Г</text><text transform="translate(316.703 335.88)" fill="#EBD8C3" font-family="'DINPro-Bold'" font-size="16">о</text><text transform="translate(325.39 335.88)" fill="#EBD8C3" font-family="'DINPro-Bold'" font-size="16">м</text><text transform="translate(336.223 335.88)" fill="#EBD8C3" font-family="'DINPro-Bold'" font-size="16">е</text><text transform="translate(344.67 335.88)" fill="#EBD8C3" font-family="'DINPro-Bold'" font-size="16">л</text><text transform="translate(353.807 335.88)" fill="#EBD8C3" font-family="'DINPro-Bold'" font-size="16">ь</text><path fill="#EBD8C3" d="M110.185 323.237a6.54 6.54 0 0 1 4.639 1.922l.003.004a6.54 6.54 0 0 1 1.923 4.639 6.542 6.542 0 0 1-1.923 4.641 6.54 6.54 0 0 1-4.642 1.924 6.54 6.54 0 0 1-4.639-1.924h-.002l-.001-.002a6.546 6.546 0 0 1-1.923-4.639c0-1.813.734-3.453 1.923-4.643a6.545 6.545 0 0 1 4.642-1.922zm3.641 2.924c-.932-.932-2.219-1.506-3.641-1.506s-2.708.576-3.639 1.506c-.932.932-1.508 2.219-1.508 3.641s.574 2.709 1.504 3.639l.004.004a5.132 5.132 0 0 0 3.639 1.504c1.421 0 2.707-.576 3.639-1.508s1.508-2.219 1.508-3.639a5.14 5.14 0 0 0-1.506-3.641zm-3.641-.338a3.98 3.98 0 1 0 0 7.958 3.98 3.98 0 0 0 0-7.958z"/><path fill="none" d="M69.935 307.237h80.5v13h-80.5z"/><text transform="translate(88.601 318.63)" fill="#EBD8C3" font-family="'DINPro-Bold'" font-size="16">Брест</text><path fill="#EBD8C3" d="M94.518 224.673a6.54 6.54 0 0 1 4.639 1.922l.003.004a6.54 6.54 0 0 1 1.923 4.639 6.542 6.542 0 0 1-1.923 4.641 6.54 6.54 0 0 1-4.642 1.924 6.54 6.54 0 0 1-4.639-1.924h-.002l-.001-.002a6.546 6.546 0 0 1-1.923-4.639c0-1.813.734-3.453 1.923-4.643a6.55 6.55 0 0 1 4.642-1.922zm3.641 2.924c-.932-.932-2.219-1.506-3.641-1.506s-2.708.576-3.639 1.506c-.932.932-1.508 2.219-1.508 3.641s.574 2.709 1.504 3.639l.004.004a5.132 5.132 0 0 0 3.639 1.504c1.421 0 2.707-.576 3.639-1.508s1.508-2.219 1.508-3.639a5.143 5.143 0 0 0-1.506-3.641zm-3.641-.338a3.98 3.98 0 1 0 0 7.958 3.98 3.98 0 0 0 0-7.958z"/><path fill="none" d="M54.268 208.673h80.5v13h-80.5z"/><text transform="translate(68.478 220.066)" fill="#EBD8C3" font-family="'DINPro-Bold'" font-size="16">Г</text><text transform="translate(76.015 220.066)" fill="#EBD8C3" font-family="'DINPro-Bold'" font-size="16">р</text><text transform="translate(84.975 220.066)" fill="#EBD8C3" font-family="'DINPro-Bold'" font-size="16">о</text><text transform="translate(93.422 220.066)" fill="#EBD8C3" font-family="'DINPro-Bold'" font-size="16">д</text><text transform="translate(102.703 220.066)" fill="#EBD8C3" font-family="'DINPro-Bold'" font-size="16">н</text><text transform="translate(111.87 220.066)" fill="#EBD8C3" font-family="'DINPro-Bold'" font-size="16">о</text><path fill="#EBD8C3" d="M291.787 74.775a6.54 6.54 0 0 1 4.639 1.922l.004.004a6.54 6.54 0 0 1 1.922 4.639 6.54 6.54 0 0 1-1.922 4.641 6.545 6.545 0 0 1-4.643 1.924 6.54 6.54 0 0 1-4.639-1.924h-.002v-.002a6.543 6.543 0 0 1-1.924-4.639c0-1.813.734-3.453 1.924-4.643a6.547 6.547 0 0 1 4.641-1.922zm3.641 2.924c-.932-.932-2.219-1.506-3.641-1.506s-2.707.576-3.639 1.506c-.932.932-1.508 2.219-1.508 3.641s.574 2.709 1.504 3.639l.004.004a5.134 5.134 0 0 0 3.639 1.504c1.422 0 2.707-.576 3.639-1.508s1.508-2.219 1.508-3.639a5.143 5.143 0 0 0-1.506-3.641zm-3.641-.338a3.98 3.98 0 1 0 0 7.958 3.98 3.98 0 0 0 0-7.958z"/><path fill="none" d="M251.537 58.775h80.501v13h-80.501z"/><text transform="translate(261.404 70.168)" fill="#EBD8C3" font-family="'DINPro-Bold'" font-size="16">В</text><text transform="translate(271.932 70.168)" fill="#EBD8C3" font-family="'DINPro-Bold'" font-size="16">и</text><text transform="translate(281.195 70.168)" fill="#EBD8C3" font-family="'DINPro-Bold'" font-size="16">т</text><text transform="translate(288.412 70.168)" fill="#EBD8C3" font-family="'DINPro-Bold'" font-size="16">е</text><text transform="translate(297.18 70.168)" fill="#EBD8C3" font-family="'DINPro-Bold'" font-size="16">б</text><text transform="translate(305.947 70.168)" fill="#EBD8C3" font-family="'DINPro-Bold'" font-size="16">с</text><text transform="translate(313.627 70.168)" fill="#EBD8C3" font-family="'DINPro-Bold'" font-size="16">к</text></svg>